<svg xmlns="http://www.w3.org/2000/svg" xmlns:xlink="http://www.w3.org/1999/xlink" width="500" zoomAndPan="magnify" viewBox="0 0 375 374.999991" height="500" preserveAspectRatio="xMidYMid meet" version="1.0"><path stroke-linecap="round" transform="matrix(0.347222, 0, 0, 0.347222, 0.0000045, 0)" fill-opacity="1" fill="#000000" fill-rule="evenodd" stroke-linejoin="round" d="M 257.996261 553.005051 C 257.996261 695.486315 373.511272 811.001325 516.003785 811.001325 L 516.003785 553.005051 Z M 257.996261 553.005051 " stroke="#ffffff" stroke-width="5" stroke-opacity="1" stroke-miterlimit="4"/><path stroke-linecap="round" transform="matrix(0.347222, 0, 0, 0.347222, 0.0000045, 0)" fill-opacity="1" fill="#000000" fill-rule="evenodd" stroke-linejoin="round" d="M 774.000059 553.005051 C 774.000059 695.767565 658.260048 811.496325 515.497535 811.496325 L 515.497535 553.005051 Z M 774.000059 553.005051 " stroke="#ffffff" stroke-width="5" stroke-opacity="1" stroke-miterlimit="4"/><path stroke-linecap="round" transform="matrix(0.347222, 0, 0, 0.347222, 0.0000045, 0)" fill-opacity="1" fill="#000000" fill-rule="evenodd" stroke-linejoin="round" d="M 774.000059 526.005049 C 774.000059 383.512536 658.485048 267.997525 516.003785 267.997525 C 373.511272 267.997525 257.996261 383.512536 257.996261 526.005049 Z M 774.000059 526.005049 " stroke="#ffffff" stroke-width="5" stroke-opacity="1" stroke-miterlimit="4"/><path stroke-linecap="round" transform="matrix(0.347222, 0, 0, 0.347222, 0.0000045, 0)" fill-opacity="1" fill="#000000" fill-rule="evenodd" stroke-linejoin="round" d="M 384.907523 655.481311 C 313.672516 654.322561 256.860011 595.642555 258.018761 524.407549 C 259.177511 453.172542 317.857517 396.360037 389.092523 397.518787 C 460.32753 398.677537 517.140035 457.357542 515.981285 528.592549 L 513.888785 657.585061 Z M 384.907523 655.481311 " stroke="#ffffff" stroke-width="5" stroke-opacity="1" stroke-miterlimit="4"/><path stroke-linecap="round" transform="matrix(0.347222, 0, 0, 0.347222, 0.0000045, 0)" fill-opacity="1" fill="#000000" fill-rule="evenodd" stroke-linejoin="round" d="M 901.001321 526.005049 C 901.001321 383.512536 785.48631 267.997525 643.005047 267.997525 L 643.005047 526.005049 Z M 901.001321 526.005049 " stroke="#ffffff" stroke-width="5" stroke-opacity="1" stroke-miterlimit="4"/></svg>