<svg xmlns="http://www.w3.org/2000/svg" xmlns:xlink="http://www.w3.org/1999/xlink" width="192" zoomAndPan="magnify" viewBox="0 0 144 143.999998" height="192" preserveAspectRatio="xMidYMid meet" version="1.0"><defs><clipPath id="d48931b2ad"><path d="M 28.5 0 L 115.5 0 C 123.058594 0 130.308594 3.003906 135.652344 8.347656 C 140.996094 13.691406 144 20.941406 144 28.5 L 144 115.5 C 144 123.058594 140.996094 130.308594 135.652344 135.652344 C 130.308594 140.996094 123.058594 144 115.5 144 L 28.5 144 C 20.941406 144 13.691406 140.996094 8.347656 135.652344 C 3.003906 130.308594 0 123.058594 0 115.5 L 0 28.5 C 0 20.941406 3.003906 13.691406 8.347656 8.347656 C 13.691406 3.003906 20.941406 0 28.5 0 Z M 28.5 0 " clip-rule="nonzero"/></clipPath></defs><g clip-path="url(#d48931b2ad)"><rect x="-14.4" width="172.8" fill="#ffffff" y="-14.4" height="172.799997" fill-opacity="1"/></g><path stroke-linecap="round" transform="matrix(0.161806, 0, 0, 0.161806, -15.489135, -15.489134)" fill-opacity="1" fill="#000000" fill-rule="evenodd" stroke-linejoin="round" d="M 258.006925 552.993554 C 258.006925 695.477482 373.500505 810.995204 516.008575 810.995204 L 516.008575 552.993554 Z M 258.006925 552.993554 " stroke="#ffffff" stroke-width="5" stroke-opacity="1" stroke-miterlimit="4"/><path stroke-linecap="round" transform="matrix(0.161806, 0, 0, 0.161806, -15.489135, -15.489134)" fill-opacity="1" fill="#000000" fill-rule="evenodd" stroke-linejoin="round" d="M 774.010224 552.993554 C 774.010224 695.767182 658.275228 811.502178 515.5016 811.502178 L 515.5016 552.993554 Z M 774.010224 552.993554 " stroke="#ffffff" stroke-width="5" stroke-opacity="1" stroke-miterlimit="4"/><path stroke-linecap="round" transform="matrix(0.161806, 0, 0, 0.161806, -15.489135, -15.489134)" fill-opacity="1" fill="#000000" fill-rule="evenodd" stroke-linejoin="round" d="M 774.010224 526.003207 C 774.010224 383.519279 658.492502 268.001557 516.008575 268.001557 C 373.500505 268.001557 258.006925 383.519279 258.006925 526.003207 Z M 774.010224 526.003207 " stroke="#ffffff" stroke-width="5" stroke-opacity="1" stroke-miterlimit="4"/><path stroke-linecap="round" transform="matrix(0.161806, 0, 0, 0.161806, -15.489135, -15.489134)" fill-opacity="1" fill="#000000" fill-rule="evenodd" stroke-linejoin="round" d="M 384.895357 655.474793 C 313.677535 654.315995 256.848127 595.627681 258.006925 524.409859 C 259.165724 453.167895 317.854037 396.362629 389.096001 397.521427 C 460.337965 398.680226 517.143231 457.368539 515.984433 528.586362 L 513.884111 657.575116 Z M 384.895357 655.474793 " stroke="#ffffff" stroke-width="5" stroke-opacity="1" stroke-miterlimit="4"/><path stroke-linecap="round" transform="matrix(0.161806, 0, 0, 0.161806, -15.489135, -15.489134)" fill-opacity="1" fill="#000000" fill-rule="evenodd" stroke-linejoin="round" d="M 900.995222 526.003207 C 900.995222 383.519279 785.477501 268.001557 642.993573 268.001557 L 642.993573 526.003207 Z M 900.995222 526.003207 " stroke="#ffffff" stroke-width="5" stroke-opacity="1" stroke-miterlimit="4"/></svg>